<svg xmlns="http://www.w3.org/2000/svg" viewBox="0 0 1200 860" role="img" aria-labelledby="title desc" font-family="Inter, ui-sans-serif, system-ui, -apple-system, BlinkMacSystemFont, 'Segoe UI', sans-serif">
  <title id="title">Kith&amp;Kin current implementation architecture</title>
  <desc id="desc">A single WebSocket pharmacy conversation runtime with React frontend, FastAPI backend, Gemini Live or deterministic adapter, faithful translation, parallel Router and Guardian agents, gated Companion agent, MCP-style tools, SQLite repositories, confirmation-gated actions, and eval observability.</desc>
  <defs>
    <marker id="arrow" viewBox="0 0 10 10" refX="9" refY="5" markerWidth="7" markerHeight="7" orient="auto-start-reverse">
      <path d="M 0 0 L 10 5 L 0 10 z" fill="#334155"/>
    </marker>
    <marker id="arrow-blue" viewBox="0 0 10 10" refX="9" refY="5" markerWidth="7" markerHeight="7" orient="auto-start-reverse">
      <path d="M 0 0 L 10 5 L 0 10 z" fill="#2563eb"/>
    </marker>
    <marker id="arrow-green" viewBox="0 0 10 10" refX="9" refY="5" markerWidth="7" markerHeight="7" orient="auto-start-reverse">
      <path d="M 0 0 L 10 5 L 0 10 z" fill="#16a34a"/>
    </marker>
    <marker id="arrow-red" viewBox="0 0 10 10" refX="9" refY="5" markerWidth="7" markerHeight="7" orient="auto-start-reverse">
      <path d="M 0 0 L 10 5 L 0 10 z" fill="#dc2626"/>
    </marker>
    <marker id="arrow-amber" viewBox="0 0 10 10" refX="9" refY="5" markerWidth="7" markerHeight="7" orient="auto-start-reverse">
      <path d="M 0 0 L 10 5 L 0 10 z" fill="#d97706"/>
    </marker>
    <linearGradient id="header" x1="0" y1="0" x2="1" y2="0">
      <stop offset="0%" stop-color="#0f172a"/>
      <stop offset="55%" stop-color="#1e3a8a"/>
      <stop offset="100%" stop-color="#0f766e"/>
    </linearGradient>
    <filter id="shadow" x="-10%" y="-10%" width="120%" height="120%">
      <feDropShadow dx="0" dy="3" stdDeviation="4" flood-color="#0f172a" flood-opacity="0.14"/>
    </filter>
    <style>
      .panel { filter: url(#shadow); }
      .label { fill: #0f172a; font-weight: 700; font-size: 15px; }
      .small { fill: #475569; font-size: 12px; }
      .tiny { fill: #64748b; font-size: 10px; }
      .tag { fill: #334155; font-weight: 700; font-size: 10px; }
      .mono { font-family: ui-monospace, SFMono-Regular, Menlo, Consolas, monospace; font-size: 11px; fill: #334155; }
    </style>
  </defs>

  <rect width="1200" height="860" rx="20" fill="#f8fafc"/>
  <rect x="0" y="0" width="1200" height="74" rx="20" fill="url(#header)"/>
  <rect x="0" y="44" width="1200" height="30" fill="url(#header)"/>
  <text x="600" y="31" text-anchor="middle" fill="#ffffff" font-size="21" font-weight="800">Kith&amp;Kin Architecture</text>
  <text x="600" y="55" text-anchor="middle" fill="#dbeafe" font-size="13">Current code: React + FastAPI + one backend WebSocket + parallel Router/Guardian + gated Companion + MCP-style tools</text>

  <!-- Users and client -->
  <rect x="36" y="108" width="210" height="96" rx="16" fill="#ecfeff" stroke="#0891b2" stroke-width="2" class="panel"/>
  <text x="141" y="137" text-anchor="middle" class="label" fill="#155e75">Parent + Pharmacist</text>
  <text x="141" y="159" text-anchor="middle" class="small">Speech, touch, speaker</text>
  <text x="141" y="180" text-anchor="middle" class="tiny">Elderly-friendly pharmacy counter</text>

  <rect x="306" y="104" width="270" height="104" rx="16" fill="#ffffff" stroke="#14b8a6" stroke-width="2" class="panel"/>
  <text x="441" y="132" text-anchor="middle" class="label">React Client</text>
  <text x="441" y="154" text-anchor="middle" class="small">ConversationPage + reducer</text>
  <text x="441" y="174" text-anchor="middle" class="tiny">Large Chinese captions · product table · cards</text>
  <rect x="340" y="184" width="202" height="18" rx="9" fill="#ccfbf1"/>
  <text x="441" y="197" text-anchor="middle" class="tag" fill="#0f766e">No Gemini key in browser</text>

  <line x1="246" y1="156" x2="306" y2="156" stroke="#334155" stroke-width="2.2" marker-end="url(#arrow)"/>
  <text x="276" y="145" text-anchor="middle" class="tiny">mic + UI</text>

  <!-- Backend runtime -->
  <rect x="650" y="94" width="500" height="128" rx="18" fill="#eef2ff" stroke="#4f46e5" stroke-width="2.5" class="panel"/>
  <text x="900" y="124" text-anchor="middle" class="label" fill="#312e81">FastAPI Backend Runtime</text>
  <text x="900" y="147" text-anchor="middle" class="small">LiveRuntimeService · RuntimeCommandService · CardService</text>
  <text x="900" y="169" text-anchor="middle" class="tiny">One backend WebSocket per conversation</text>
  <text x="900" y="190" text-anchor="middle" class="mono">session.ready · transcript.final · translation.final · cards.render · product.options.render</text>

  <line x1="576" y1="156" x2="650" y2="156" stroke="#2563eb" stroke-width="2.4" marker-end="url(#arrow-blue)"/>
  <text x="613" y="144" text-anchor="middle" class="tiny" fill="#2563eb">one WS</text>

  <!-- Live provider -->
  <rect x="715" y="258" width="370" height="78" rx="14" fill="#f1f5f9" stroke="#64748b" stroke-width="2" class="panel"/>
  <text x="900" y="285" text-anchor="middle" class="label">Gemini Live Adapter / Fake Adapter</text>
  <text x="900" y="307" text-anchor="middle" class="small">Live path for demo · deterministic path for CI/browser smoke</text>
  <text x="900" y="326" text-anchor="middle" class="tiny">Provider payloads normalized before React</text>

  <line x1="900" y1="222" x2="900" y2="258" stroke="#334155" stroke-width="2" marker-end="url(#arrow)"/>
  <text x="942" y="244" class="tiny">audio + provider events</text>

  <!-- Split label -->
  <rect x="70" y="260" width="420" height="44" rx="12" fill="#ffffff" stroke="#cbd5e1" stroke-width="1.5"/>
  <text x="280" y="286" text-anchor="middle" class="small" font-weight="700">Final transcript events split into independent product tracks</text>

  <!-- Translation track -->
  <rect x="44" y="350" width="260" height="168" rx="18" fill="#f0fdf4" stroke="#16a34a" stroke-width="2.5" class="panel"/>
  <text x="174" y="379" text-anchor="middle" class="label" fill="#166534">Faithful Translation Track</text>
  <text x="174" y="405" text-anchor="middle" class="small">TranslationService</text>
  <text x="174" y="426" text-anchor="middle" class="tiny">GeminiTextAdapter or live fallback</text>
  <line x1="84" y1="444" x2="264" y2="444" stroke="#bbf7d0" stroke-width="1"/>
  <text x="174" y="468" text-anchor="middle" class="small">Rules</text>
  <text x="174" y="488" text-anchor="middle" class="tiny">Only from transcript.final</text>
  <text x="174" y="505" text-anchor="middle" class="tiny">No advice inside translated_text</text>

  <line x1="715" y1="336" x2="304" y2="402" stroke="#16a34a" stroke-width="2.4" marker-end="url(#arrow-green)"/>
  <text x="495" y="354" text-anchor="middle" class="tiny" fill="#16a34a">translation.pending / translation.final</text>

  <!-- Agent orchestration -->
  <rect x="354" y="350" width="440" height="282" rx="20" fill="#eff6ff" stroke="#2563eb" stroke-width="2.5" class="panel"/>
  <text x="574" y="379" text-anchor="middle" class="label" fill="#1d4ed8">ADK Text-Level Orchestration</text>
  <text x="574" y="401" text-anchor="middle" class="small">TurnOrchestrator processes each final turn</text>

  <rect x="386" y="426" width="160" height="72" rx="14" fill="#ffffff" stroke="#60a5fa" stroke-width="2"/>
  <text x="466" y="453" text-anchor="middle" class="label" fill="#1d4ed8">Router</text>
  <text x="466" y="475" text-anchor="middle" class="tiny">route.decision</text>
  <text x="466" y="491" text-anchor="middle" class="tiny">passive / pharmacy / privacy</text>

  <rect x="602" y="426" width="160" height="72" rx="14" fill="#fff1f2" stroke="#dc2626" stroke-width="2"/>
  <text x="682" y="453" text-anchor="middle" class="label" fill="#b91c1c">Guardian</text>
  <text x="682" y="475" text-anchor="middle" class="tiny">parallel policy gate</text>
  <text x="682" y="491" text-anchor="middle" class="tiny">block / confirm / allow</text>

  <line x1="574" y1="416" x2="466" y2="426" stroke="#2563eb" stroke-width="2" marker-end="url(#arrow-blue)"/>
  <line x1="574" y1="416" x2="682" y2="426" stroke="#dc2626" stroke-width="2" marker-end="url(#arrow-red)"/>
  <text x="574" y="420" text-anchor="middle" class="tiny" fill="#334155">parallel</text>

  <rect x="462" y="542" width="224" height="76" rx="14" fill="#ffffff" stroke="#2563eb" stroke-width="2"/>
  <text x="574" y="570" text-anchor="middle" class="label" fill="#1d4ed8">Companion LlmAgent</text>
  <text x="574" y="592" text-anchor="middle" class="tiny">Runs only when route needs help</text>
  <text x="574" y="609" text-anchor="middle" class="tiny">Proposes cards, not medical decisions</text>

  <line x1="466" y1="498" x2="520" y2="542" stroke="#2563eb" stroke-width="2" marker-end="url(#arrow-blue)"/>
  <line x1="682" y1="498" x2="628" y2="542" stroke="#dc2626" stroke-width="2" marker-end="url(#arrow-red)"/>
  <text x="574" y="526" text-anchor="middle" class="tiny">blocked turns skip Companion</text>

  <line x1="715" y1="336" x2="574" y2="350" stroke="#2563eb" stroke-width="2.4" marker-end="url(#arrow-blue)"/>
  <text x="628" y="336" text-anchor="middle" class="tiny" fill="#2563eb">transcript.final</text>

  <!-- Product options -->
  <rect x="842" y="370" width="302" height="146" rx="18" fill="#fffbeb" stroke="#d97706" stroke-width="2.5" class="panel"/>
  <text x="993" y="399" text-anchor="middle" class="label" fill="#92400e">Product Options Extractor</text>
  <text x="993" y="424" text-anchor="middle" class="small">product.options.render</text>
  <text x="993" y="447" text-anchor="middle" class="tiny">Only pharmacist-stated facts</text>
  <text x="993" y="465" text-anchor="middle" class="tiny">name · price · use · directions · cautions</text>
  <rect x="884" y="482" width="218" height="20" rx="10" fill="#fef3c7"/>
  <text x="993" y="496" text-anchor="middle" class="tag" fill="#92400e">No ranking, recommendation, or suitability</text>

  <line x1="940" y1="336" x2="980" y2="370" stroke="#d97706" stroke-width="2.4" marker-end="url(#arrow-amber)"/>

  <!-- Tools and storage -->
  <rect x="848" y="564" width="296" height="170" rx="18" fill="#ffffff" stroke="#0f766e" stroke-width="2.5" class="panel"/>
  <text x="996" y="594" text-anchor="middle" class="label" fill="#0f766e">MCP-Style Tool Boundary</text>
  <text x="996" y="618" text-anchor="middle" class="mono">memory_search</text>
  <text x="996" y="638" text-anchor="middle" class="mono">check_drug_interaction</text>
  <text x="996" y="658" text-anchor="middle" class="mono">memory_write</text>
  <text x="996" y="678" text-anchor="middle" class="mono">notify_family</text>
  <rect x="882" y="700" width="228" height="20" rx="10" fill="#ccfbf1"/>
  <text x="996" y="714" text-anchor="middle" class="tag" fill="#0f766e">server-derived context + audit boundary</text>

  <line x1="686" y1="580" x2="848" y2="638" stroke="#0f766e" stroke-width="2.2" marker-end="url(#arrow)"/>
  <text x="766" y="592" text-anchor="middle" class="tiny" fill="#0f766e">bounded tools</text>

  <rect x="848" y="770" width="296" height="50" rx="14" fill="#f1f5f9" stroke="#64748b" stroke-width="2"/>
  <text x="996" y="800" text-anchor="middle" class="label">SQLite Repositories</text>
  <text x="996" y="815" text-anchor="middle" class="tiny">memory · sessions · tickets · traces · visits · notifications</text>
  <line x1="996" y1="734" x2="996" y2="770" stroke="#334155" stroke-width="2" marker-end="url(#arrow)"/>

  <!-- UI outputs -->
  <rect x="44" y="680" width="748" height="140" rx="20" fill="#ffffff" stroke="#0f172a" stroke-width="2.5" class="panel"/>
  <text x="418" y="709" text-anchor="middle" class="label">Frontend User Experience</text>

  <rect x="70" y="732" width="140" height="50" rx="12" fill="#f0fdf4" stroke="#16a34a" stroke-width="1.5"/>
  <text x="140" y="754" text-anchor="middle" class="tag" fill="#166534">Large Chinese</text>
  <text x="140" y="771" text-anchor="middle" class="tiny">faithful captions</text>

  <rect x="230" y="732" width="140" height="50" rx="12" fill="#fffbeb" stroke="#d97706" stroke-width="1.5"/>
  <text x="300" y="754" text-anchor="middle" class="tag" fill="#92400e">Product table</text>
  <text x="300" y="771" text-anchor="middle" class="tiny">pharmacist facts</text>

  <rect x="390" y="732" width="140" height="50" rx="12" fill="#eff6ff" stroke="#2563eb" stroke-width="1.5"/>
  <text x="460" y="754" text-anchor="middle" class="tag" fill="#1d4ed8">Response cards</text>
  <text x="460" y="771" text-anchor="middle" class="tiny">select then confirm</text>

  <rect x="550" y="732" width="140" height="50" rx="12" fill="#fff1f2" stroke="#dc2626" stroke-width="1.5"/>
  <text x="620" y="754" text-anchor="middle" class="tag" fill="#b91c1c">Guardian alerts</text>
  <text x="620" y="771" text-anchor="middle" class="tiny">block / consent</text>

  <rect x="704" y="732" width="70" height="50" rx="12" fill="#f8fafc" stroke="#64748b" stroke-width="1.5"/>
  <text x="739" y="754" text-anchor="middle" class="tag">Summary</text>
  <text x="739" y="771" text-anchor="middle" class="tiny">review</text>

  <line x1="174" y1="518" x2="140" y2="732" stroke="#16a34a" stroke-width="2" stroke-dasharray="6 4" marker-end="url(#arrow-green)"/>
  <line x1="993" y1="516" x2="300" y2="732" stroke="#d97706" stroke-width="2" stroke-dasharray="6 4" marker-end="url(#arrow-amber)"/>
  <line x1="574" y1="632" x2="460" y2="732" stroke="#2563eb" stroke-width="2" stroke-dasharray="6 4" marker-end="url(#arrow-blue)"/>
  <line x1="682" y1="498" x2="620" y2="732" stroke="#dc2626" stroke-width="2" stroke-dasharray="6 4" marker-end="url(#arrow-red)"/>

  <!-- Confirmation and action lifecycle -->
  <rect x="354" y="644" width="440" height="24" rx="12" fill="#dbeafe" stroke="#2563eb" stroke-width="1"/>
  <text x="574" y="660" text-anchor="middle" class="tag" fill="#1d4ed8">cards.render → card.selected → card.confirmed → card.action.status → audio.speaking / memory.write / notification.status</text>

  <!-- Eval and observability -->
  <rect x="44" y="556" width="260" height="76" rx="16" fill="#f8fafc" stroke="#64748b" stroke-width="2" class="panel"/>
  <text x="174" y="584" text-anchor="middle" class="label">Evals + Observability</text>
  <text x="174" y="607" text-anchor="middle" class="small">24 cases in evals/cases.json</text>
  <text x="174" y="624" text-anchor="middle" class="tiny">routes · tools · cards · product options · audio · traces</text>

  <line x1="354" y1="594" x2="304" y2="594" stroke="#64748b" stroke-width="2" marker-end="url(#arrow)"/>

  <!-- Bottom invariant -->
  <rect x="36" y="830" width="1114" height="18" rx="9" fill="#0f172a"/>
  <text x="593" y="843" text-anchor="middle" fill="#e2e8f0" font-size="10" font-weight="700">Invariant: faithful translation stays separate from agent advice · no medical recommendation · no side effects before backend confirmation · frontend displays backend-confirmed events</text>
</svg>
